<svg id="eahDrPwe3GI1" xmlns="http://www.w3.org/2000/svg" xmlns:xlink="http://www.w3.org/1999/xlink" viewBox="0 0 559 575.5" shape-rendering="geometricPrecision" text-rendering="geometricPrecision">
    <path
        d="M85.5,34.5c7.3-4.2,13.5-2.2,15.5,4.4c1.8-3.6,4.5-6.6,7.9-8.7c5.7-3.3,10.5-.7,10.5,5.9v3l7.8-4.5c4-2.3,7.3-.5,7.3,4.2-.3,5.1-3,9.8-7.3,12.5L61.8,89.1c-4,2.3-7.3.5-7.3-4.2.3-5.1,3-9.8,7.3-12.6l7.7-4.5v-5.6c-.1-10.1,7.1-22.6,16-27.7v0Z"
        fill="#fff"
    />
    <path
        d="M149.5,59.2c5.2-3,9.7-1.6,11.1,3.2c1.3-2.6,3.2-4.8,5.7-6.3c4.1-2.4,7.5-.5,7.5,4.3v2.2l5.6-3.2c2.9-1.7,5.2-.3,5.2,3-.2,3.7-2.1,7-5.2,9L132.5,98.5c-2.9,1.7-5.2.3-5.2-3c.2-3.7,2.1-7,5.2-9l5.5-3.2v-4c.4-8.2,4.7-15.6,11.5-20.1v0Z"
        fill="#fff"
    />
    <path d="M471.7,295.7c-107.2-61.9-280.6-61.9-387.2,0C-22,357.6,-21.5,458,85.8,519.9s280.6,61.9,387.2,0s105.9-162.3-1.3-224.2v0Z" fill="#f5f5f5" />
    <g>
        <path
            d="M75.6,401.5c-.1,3.2-1.5,6.2-3.8,8.4-2.3,1.7-4.9,2.7-7.8,2.9-2.8.2-5.7.1-8.5-.3-1.4-.2-3-.5-3.4-2.1-.2-.9,0-1.8.5-2.5.2-.3.5-.6.7-.9.3-.4.3-.9-.1-1.2-.2-.1-.4-.2-.7-.2-.8.1-1.6.1-2.4.2-1.9.1-3.7-.4-5.3-1.2-1.2-.7-2.2-1.7-2.9-2.9-.7-1-.8-2.2-.3-3.3.4-.5,1-1,1.7-1.2.6-.2,1.1-.5,1.7-.7.4-.1.6-.6.5-1-.1-.2-.3-.4-.6-.5l-2.7-.5c-.8-.1-1.5-.4-2.1-.8-.9-.9-1.3-2.1-1.2-3.3c0-1.6.2-3.2.3-4.7.1-1.6-.1-3.2-.8-4.7c4.5-1.4,9.2-2,14-1.8c1.4,0,2.8.3,4.1.9c1.7,1,2.7,2.8,2.8,4.7c0,.2.2.3.4.3s.3-.1.3-.3l1-3.2c.3-1,1.3-1.5,2.3-1.3c1.5.4,2.9,1.1,4.2,2.1c1.4,1,2.2,2.6,2.4,4.3.3,2.3.3,4.7.2,7c0,.3.2.6.6.7.2,0,.4-.1.5-.2h.1c.4-.4.8-.7,1.4-.7c1.4-.1,2.1,1.2,2.4,2.4.3,1.8.5,3.7.5,5.6v0Z"
            fill="#00ccd1"
        />
        <path
            d="M69.7,409.9c-1.6-3.5-3.6-6.9-5.8-10c0-.1-.1-.2-.2-.3-.1-.2-.2-.3-.4-.5-.4-4.4,0-8.8,1.2-13c.1-.2,0-.4-.2-.5s-.4,0-.5.2c-1.2,3.9-1.6,8-1.4,12.2-5.1-6.9-11.9-12.3-19.6-15.9-.2-.1-.4,0-.5.2s0,.4.2.5c8,3.7,14.8,9.4,19.9,16.5-4.5-1-9.2-.8-13.5.8-.2.1-.3.3-.2.5.1.1.2.2.3.2h.1c4.5-1.6,9.4-1.8,14-.5c2.3,3.1,4.2,6.4,5.8,9.9.1.1.2.2.4.2h.1c.2,0,.4-.2.3-.5c0,0,0,0,0,0v0Z"
            fill="#ebebeb"
        />
        <path
            d="M50.2,367.4c-3.2-2.7-6.8-5-9.8-7.9-2.1-2-4-4.5-3.8-7.4.3-2.7,2-5,4.6-6c2.5-.9,5.3-.8,7.8.2s4.7,2.5,6.7,4.3c11.2,9.6,18.2,23.1,19.7,37.7.3,1.6.1,3.4-.6,4.9-.9,1.6-2.6,2.5-4.5,2.4-4.6-.4-5.2-6.4-6.5-9.7-1.9-4.5-4.5-8.8-7.6-12.5-1.9-2.2-3.9-4.2-6-6v0Z"
            fill="#00bfac"
        />
        <path d="M72.2,391.8c-.2,0-.3-.1-.4-.3-1.7-6.9-8.6-30.1-27.6-40.3-.2-.1-.3-.3-.2-.5s.3-.3.5-.1c19.3,10.4,26.3,33.9,28,40.9.1.2-.1.4-.3.5v-.2v0v0Z" fill="#ebebeb" />
    </g>
    <g id="eahDrPwe3GI10" transform="translate(0-440)">
        <g>
            <path
                d="M371.9,259.8c0-3-1.1-5.2-2.8-6.2h-.1l-10.2-5.9c-.2-.1-.5-.3-.7-.4-.5-.2-1-.3-1.6-.4-.3,0-.7,0-1,0h-.3l-.8.1-.4.1c-.3.1-.5.2-.8.3l-.4.1c-.4.2-.8.4-1.2.6L80.5,404.3c-.4.2-.7.4-1,.7l-.3.2-.7.5-.4.3-.6.6-.3.3-.6.6-.3.3-.6.7c-.1.1-.2.2-.3.3-.2.3-.4.5-.6.8l-.2.3c-.2.3-.4.6-.6,1-.1.1-.1.1-.1.2-.4.6-.7,1.3-1.1,2c0,.1-.1.2-.2.3l-.3.7c-.1.1-.1.3-.2.5-.1.1-.2.4-.2.6-.1.2-.1.3-.2.5s-.1.4-.2.6l-.1.6-.2.6c0,.2-.1.4-.1.6s-.1.3-.1.5s0,.5-.1.7v1.5l.5,4.7c0,1.3.2,2.5.7,3.7.2.5.5.9.8,1.4.3.4.7.7,1.1,1c.2.1.4.2.6.3l10.1,5.9.2.1h.1c1.8.9,4.1.8,6.8-.8l86.7-49.9l45.1,27c.6.3,1.2.6,1.8.9l.6.3c.4.2.8.4,1.2.5l.7.3c.4.1.8.3,1.2.4l.8.3l1.2.3.8.2c.4.1.8.2,1.2.3l.7.1c.4.1.9.1,1.3.2l.6.1c.6.1,1.3.1,1.9.2.6,0,1.4.1,2.1.1s1.4,0,2.1-.1c1.4-.1,2.8-.3,4.1-.5.8-.1,1.6-.3,2.3-.5l.7-.2c.6-.2,1.1-.3,1.6-.5l.8-.3c.5-.2,1-.4,1.5-.6l.7-.3c.7-.4,1.5-.7,2.2-1.1l34.6-19.8c4.8-2.8,7.3-8.3,6.2-13.7-.7-3.7-2.9-6.9-6.1-8.8l-19.8-11.9-8.4-5c-.4-.3-.8-.5-1.2-.9-1.9-1.5-3.3-3.6-3.9-6-.2-1-.4-1.9-.4-2.9v-3.1L363,281c5.4-3.1,9.8-10.7,9.7-16.9l-.8-4.3v0Z"
                fill="#d8d8d8"
            />
            <path
                d="M296.1,368.8c-.7-3.7-2.9-6.9-6.1-8.8l-28.2-16.9c-3.4-2.1-5.5-5.8-5.5-9.8v-13.4l-63.8,36.9-5.3,3v15.1c0,3.1,1.2,6,3.5,8.2.3.3.6.6,1,.9s.8.6,1.3.8l30.3,17.5c4.3,2.5,9,3.9,13.9,4.2.7,0,1.4.1,2.1.1h2.1c4.9-.3,9.7-1.7,13.9-4.2l34.6-19.8c4.7-2.8,7.3-8.4,6.2-13.8v0Z"
                opacity="0.2"
                fill="#455a64"
            />
            <path d="M296.1,368.8c-.7-3.7-2.9-6.9-6.1-8.8l-28.2-16.9c-3.4-2.1-5.5-5.8-5.5-9.8v-13.4l-63.8,36.9-5.3,3v15.1c0,4.1,2.2,7.9,5.7,9.9l30.3,17.5c9.9,5.7,22.1,5.7,32,0l34.6-19.8c4.8-2.8,7.4-8.3,6.3-13.7v0Z" fill="#455a64" />
            <path
                d="M289.8,377.7l-34.4,19.7c-10.1,5.8-22.4,5.8-32.5,0l-25.5-14.7c-3-1.7-4.9-5-4.9-8.5v-17.4l-5.4,3v15.1c0,4.1,2.2,7.9,5.7,9.9l30.3,17.5c9.9,5.7,22.1,5.7,32,0l34.6-19.8c4.8-2.8,7.4-8.3,6.3-13.7-.5,3.7-2.8,7-6.2,8.9v0Z"
                fill="#37474f"
            />
            <path d="M197.4,382.6c-3-1.7-4.9-5-4.9-8.5v-17.4l-5.4,3v15.1c0,4.1,2.2,7.9,5.7,9.9l10.8,6.2v-4.8l-6.2-3.5v0Z" fill="#263238" />
            <path d="M197.4,382.6l6.2,3.6l66.6-38.1-8.4-5c-3.4-2.1-5.5-5.8-5.5-9.8v-13.4l-63.8,36.9v17.4c0,3.4,1.9,6.6,4.9,8.4v0Z" fill="#37474f" />
        </g>
        <g>
            <path
                d="M371.9,34c0-3.1-1.1-5.2-2.8-6.2h-.1l-10.2-5.9c-.2-.1-.5-.3-.7-.4-.5-.2-1-.3-1.6-.4-1.7,0-3.4.4-4.8,1.3L80.5,178.5c-.4.2-.7.4-1,.7l-.3.2-.7.5-.4.3-.6.6-.3.3-.6.6-.3.4c-.2.2-.4.5-.6.7l-.3.3c-.2.3-.4.6-.6.8l-.2.3c-.2.3-.4.6-.6,1-.1.1-.1.1-.1.2-.4.6-.7,1.3-1.1,2l-.2.3-.3.7c-.1.1-.1.3-.2.4l-.2.6-.2.5c-.1.2-.1.4-.2.6l-.1.6-.1.6c0,.2-.1.4-.1.6s-.1.3-.1.5c0,.1,0,.5-.1.7s0,.3,0,.4v1.1l.5,218.1c0,1.3.2,2.5.7,3.7.4,1,1,1.8,1.9,2.4.2.1.4.2.6.3l10.1,5.9.2.1h.1c1.8.9,4.1.8,6.8-.8L362.6,269c5.4-3.1,9.8-10.7,9.7-16.9L371.9,34v0ZM90.8,201.4c.2-2.4,1.2-4.6,2.7-6.5-1.5,1.8-2.5,4.1-2.7,6.5v0v0Zm264.4-158L95.6,192.8L362.2,39.4l-7,4v0v0ZM90.8,202.9l.5,203.9v7.4l-.5-211.3v0Z"
                fill="#37474f"
            />
            <path
                d="M371.9,34c0-3.1-1.1-5.2-2.8-6.2h-.1l-10.2-5.9c-1.8-1.2-4.3-1-7.1.6L80.5,178.5c-5.4,3.1-9.8,10.7-9.7,16.9l.5,218.1c0,2.9,1,5,2.6,6.1.2.1.4.2.6.3l10.1,5.9.2.1h.1c1.8.9,4.1.8,6.8-.8L362.6,269c5.4-3.1,9.8-10.7,9.7-16.9L371.9,34v0ZM355.8,248.8c-.4,3.4-2.1,6.5-4.9,8.5L91.2,406.8v7.4l-.5-212.7c.4-3.4,2.2-6.5,4.9-8.5L362.2,39.4l-6.9,4l.5,205.4v0Z"
                fill="#37474f"
            />
            <path d="M355.8,248.8l-.5-205.4L95.7,192.8c-2.8,2-4.5,5.1-4.9,8.5l.4,205.4L350.8,257.3c2.8-2,4.6-5.1,5-8.5v0Z" fill="#00354c" />
            <path d="M358.7,21.7c-1.8-1.2-4.3-1-7.1.6L80.5,178.5c-3.2,2-5.8,4.9-7.5,8.3l10.4,6c1.7-3.4,4.2-6.3,7.4-8.3L362.1,28.4c2.7-1.5,5.1-1.7,6.9-.7l-10.3-6Z" fill="#455a64" />
            <path d="M70.7,195.4l.5,218.1c0,2.9,1,5,2.6,6.1.2.1.4.2.6.3l10.1,5.9c-1.7-1-2.8-3.2-2.8-6.2l-.5-218.1c.1-3,.9-5.9,2.3-8.6l-10.4-6c-1.5,2.5-2.3,5.5-2.4,8.5v0Z" fill="#263238" />
            <path d="M362.2,39.4l-6.9,4l.5,205.4c-.4,3.4-2.1,6.5-4.9,8.5L91.2,406.8v7.4L357.7,260.7c2.8-2,4.5-5.1,4.9-8.5l-.4-212.8v0Z" fill="#263238" />
        </g>
    </g>
    <g id="eahDrPwe3GI25" transform="translate(0-430)">
        <path d="M119.6,242.3l-.1-15.8-10.6-6.1.1,15.4v.4c0,0,10.6,6.1,10.6,6.1Z" fill="#e6e6e6" />
        <path d="M120.1,424.8l-.5-182.5-10.5-6.1.5,182.1c-.1,1.2.4,2.4,1.4,3.1l10.5,6.4c-1-.7-1.5-1.8-1.4-3v0Z" fill="#d8d8d8" />
        <path d="M119.6,226.6v-9.1c.2-3.4,2-6.6,4.9-8.4l275-158.8c1-.7,2.3-.8,3.4-.4l-10.5-6.4c-1.1-.6-2.5-.5-3.6.3l-275,158.8c-2.9,1.9-4.7,5-4.8,8.4v9.4l10.6,6.2c-.1,0,0,0,0,0Z" fill="#00ccd1" />
        <path d="M119.6,242.3l-.1-15.8-10.6-6.1.1,15.4v.4c0,0,10.6,6.1,10.6,6.1Z" fill="#d8d8d8" />
        <path d="M399.4,50.3c2.7-1.5,4.9-.3,4.9,2.8v9.1L119.6,226.6v-9.1c.2-3.4,2-6.6,4.9-8.4L399.4,50.3Z" fill="#00bfac" />
        <path d="M176.8,184.5c1.1-.6,2.1-.5,2.6.3l2.6,4c.5.8,1.5.9,2.6.3L404.3,62.2v15.8L119.6,242.4v-15.8l8.4-4.9c1.2-.8,2.1-1.9,2.6-3.3l2.6-6.9c.5-1.3,1.4-2.5,2.6-3.2l41-23.8v0Z" fill="#d8d8d8" />
        <path d="M404.3,78l.5,182.5c-.2,3.4-2,6.5-4.9,8.4L125,427.6c-2.7,1.5-4.9.3-4.9-2.8l-.5-182.5L404.3,78Z" fill="#f5f5f5" />
        <path d="M124.1,228c.1-.1.2-.1.4,0s.2.5,0,.8l-1.5,2.5l4-2.3c.3-.1.5,0,.5.3s-.2.7-.5.9l-4,2.3l1.5.7c.2.1.2.4,0,.8-.1.1-.2.3-.4.4-.1.1-.2.1-.3,0l-2.4-1.2-.1-.1v-.4l.1-.2l2.4-4c0-.3.2-.5.3-.5v0Z" fill="#e6e6e6" />
        <path d="M132.8,223c.1-.1.2-.1.3,0l2.4,1.2.1.1v.4l-.1.2-2.4,4c-.1.1-.2.2-.3.3s-.2.1-.4,0-.2-.5,0-.8l1.5-2.5-4,2.3c-.3.1-.5,0-.5-.3s.2-.6.5-.8l4-2.3-1.5-.7c-.2-.1-.2-.4,0-.8.1-.1.2-.2.4-.3v0Z" fill="#e6e6e6" />
        <path
            d="M141,218.3c.5-.3,1.1-.4,1.6-.3l.4-.5c.1-.1.1-.2.3-.2.1-.1.2-.1.3-.1.2,0,.2.2.2.4l-.2,1.5c0,.2-.1.4-.2.5s-.2.2-.3.2h-.1l-1.2.3c-.1.1-.3,0-.4-.2v-.1c0-.2.1-.5.2-.7l.1-.2c-.3,0-.5.1-.8.2-1,.7-1.7,1.8-1.7,3c0,1.1.8,1.6,1.8,1c.7-.5,1.3-1.1,1.5-1.9.1-.2.2-.4.4-.5.1-.1.1-.1.2-.1.2,0,.3.3.2.6-.4,1.2-1.3,2.3-2.4,3-1.5.9-2.7.2-2.7-1.6.2-1.6,1.2-3.3,2.8-4.3v0v0Z"
            fill="#e6e6e6"
        />
        <path d="M124.1,228c.1-.1.2-.1.4,0s.2.5,0,.8l-1.5,2.5l4-2.3c.3-.1.5,0,.5.3s-.2.7-.5.9l-4,2.3l1.5.7c.2.1.2.4,0,.8-.1.1-.2.3-.4.4-.1.1-.2.1-.3,0l-2.4-1.2-.1-.1v-.4l.1-.2l2.4-4c0-.3.2-.5.3-.5v0Z" fill="#011138" />
        <path d="M132.8,223c.1-.1.2-.1.3,0l2.4,1.2.1.1v.4l-.1.2-2.4,4c-.1.1-.2.2-.3.3s-.2.1-.4,0-.2-.5,0-.8l1.5-2.5-4,2.3c-.3.1-.5,0-.5-.3s.2-.6.5-.8l4-2.3-1.5-.7c-.2-.1-.2-.4,0-.8.1-.1.2-.2.4-.3v0Z" fill="#011138" />
        <path
            d="M141,218.3c.5-.3,1.1-.4,1.6-.3l.4-.5c.1-.1.1-.2.3-.2.1-.1.2-.1.3-.1.2,0,.2.2.2.4l-.2,1.5c0,.2-.1.4-.2.5s-.2.2-.3.2h-.1l-1.2.3c-.1.1-.3,0-.4-.2v-.1c0-.2.1-.5.2-.7l.1-.2c-.3,0-.5.1-.8.2-1,.7-1.7,1.8-1.7,3c0,1.1.8,1.6,1.8,1c.7-.5,1.3-1.1,1.5-1.9.1-.2.2-.4.4-.5.1-.1.1-.1.2-.1.2,0,.3.3.2.6-.4,1.2-1.3,2.3-2.4,3-1.5.9-2.7.2-2.7-1.6.2-1.6,1.2-3.3,2.8-4.3v0v0Z"
            fill="#011138"
        />
        <path d="M291.3,225.6l.3,93.1-89.9,51.9-.3-93.1l89.9-51.9Z" fill="#00ccd1" />
        <path d="M392.9,99l.1,52.5-121.5,70.1-.1-52.4L392.9,99v0Z" fill="#00ccd1" />
        <path d="M192.6,282.5l.3,93.1-57,32.9-.3-93.1l57-32.9v0Z" fill="#263238" />
        <path d="M392.1,167.3l.3,93.1-92.1,53.2-.3-93.1l92.1-53.2Z" fill="#263238" />
        <path d="M315,153.1v6.2l-34.4,19.9v-6.2L315,153.1v0Z" fill="#fff" />
        <path d="M323.6,158.3v3.8l-42.9,24.7v-3.8l42.9-24.7Z" fill="#fff" />
        <path d="M164.2,307.9v5.7l-22,12.7v-5.7l22-12.7v0Z" fill="#fff" />
        <path d="M186.1,304.4v2.7l-43.8,25.3v-2.7l43.8-25.3Z" fill="#fff" />
        <path d="M186.1,309.7v2.7l-43.8,25.3v-2.7l43.8-25.3Z" fill="#fff" />
        <path d="M173.4,329.9v5.7l-31.1,17.9v-5.7l31.1-17.9v0Z" fill="#fff" />
        <path d="M164.2,327.7v2.7L142.3,343v-2.7l21.9-12.6Z" fill="#fff" />
        <path d="M259,272.5l-17.9,33.9L236,316l3.5-10.8-9.8-7.6-11,21.8v13.3l57.5-33.2v-13.3L259,272.5v0Z" fill="#fff" />
        <path d="M240.1,290.5c2.9-1.9,4.7-5,4.9-8.5c0-3.1-2.2-4.4-4.9-2.8-2.9,1.9-4.7,5-4.9,8.5c0,3.1,2.2,4.4,4.9,2.8Z" fill="#fff" />
        <path d="M360.8,214.9l-17.9,33.9-5,9.6l3.5-10.8-9.8-7.6-11,21.8v13.3l57.5-33.2v-13.3l-17.3-13.7v0Z" fill="#fff" />
        <path d="M341.9,232.8c2.9-1.9,4.7-5,4.9-8.5c0-3.1-2.2-4.4-4.9-2.8-2.9,1.9-4.7,5-4.9,8.5c0,3.2,2.2,4.4,4.9,2.8Z" fill="#fff" />
        <path d="M316.2,185.1v3.8l-35.5,20.7v-3.8l35.5-20.7v0Z" fill="#fff" />
        <path d="M323.6,173.5v3.8l-43,24.7v-3.8l43-24.7Z" fill="#fff" />
        <path d="M300.7,179v3.8l-20.1,11.6v-3.8L300.7,179v0Z" fill="#fff" />
        <path d="M186.3,364.2v2.7l-43.8,25.3v-2.7l43.8-25.3v0Z" fill="#fff" />
        <path d="M186.2,358.8v2.7l-43.8,25.3v-2.7l43.8-25.3Z" fill="#fff" />
        <path d="M161.5,364.1v5.7l-19,11v-5.8l19-10.9Z" fill="#fff" />
        <path d="M178.4,346.8v2.7l-36,20.8v-2.7l36-20.8v0Z" fill="#fff" />
        <path d="M186.2,337v2.7L142.4,365v-2.7L186.2,337Z" fill="#fff" />
        <path d="M186.2,331.6v2.7l-43.8,25.3v-2.7l43.8-25.3Z" fill="#fff" />
        <path d="M378.2,115.2l-35.5,20.5.1,27.1l35.5-20.5-.1-27.1Z" fill="#ba68c8" />
        <path d="M378.2,115.2l.1,27.2l3.3,1.9-.1-31-3.3,1.9v0Z" fill="#00bfac" />
        <path d="M342.7,162.8v3.8l38.8-22.4-3.3-1.9-35.5,20.5v0Z" fill="#00bfac" />
        <path d="M385.4,106.4l-46.8,27l.1,40.1l46.7-27v-40.1Zm-42.7,60.2v-3.8l-.1-27.1l35.5-20.5l3.3-1.9.1,31-38.8,22.3v0Z" fill="#023966" />
        <path d="M385.4,106.4l-3.3-1.9-46.7,27l3.3,1.9l46.7-27v0Z" fill="#37474f" />
        <path d="M335.4,131.5l.1,40.1l3.3,1.9-.1-40.1-3.3-1.9v0Z" fill="#37474f" />
        <path d="M342.7,135.7l35.5-20.5.1,27.2-35.5,20.5-.1-27.2Z" fill="#fff" />
        <path d="M366.9,125.5l9.7,7.6v7.4l-32.2,18.6v-7.5l6.1-12.2l5.5,4.3-2,6.1l2.8-5.4l10.1-18.9v0Z" fill="#00bfac" />
        <path d="M356.3,129.2c1.5-.9,2.8-.2,2.8,1.6-.1,1.9-1.1,3.7-2.7,4.7-1.5.9-2.8.2-2.8-1.6.1-1.9,1.1-3.6,2.7-4.7v0Z" fill="#00bfac" />
    </g>
    <path d="M262.8,485.5c-19-11-49.6-11-68.5,0s-18.8,28.7.2,39.7s49.6,11,68.5,0s18.8-28.8-.2-39.7v0Z" fill="#e6e6e6" />
    <path d="M378.4,492.5c-18.9-10.9-49.5-10.9-68.2,0-18.8,10.9-18.7,28.6.2,39.5s49.5,10.9,68.2,0s18.7-28.6-.2-39.5v0Z" fill="#e6e6e6" />
    <path d="M466.2,404.9c-16.6-9.6-43.4-9.6-59.9,0s-16.4,25.1.2,34.7s43.4,9.6,59.9,0c16.4-9.6,16.4-25.2-.2-34.7Z" fill="#e6e6e6" />
    <path d="M404.5,338.4c-17.7-10.2-46.2-10.2-63.7,0s-17.5,26.7.2,36.9s46.2,10.2,63.7,0s17.4-26.7-.2-36.9v0Z" fill="#e6e6e6" />
    <path d="M506.7,372.4l-5.5-4.5c-.3-8.7-.7-17.8.8-26.4s4.8-17,10.9-23.2c2.6-2.6,5.7-4.7,9.4-5.2s7.6,1.4,8.9,4.8c1.2,3.4-.7,7.5-2.8,10.7-4.5,6.8-9.8,13-14.2,19.8-4.6,7.2-7.2,15.5-7.5,24v0Z" fill="#00ccd1" />
    <path d="M506.7,373.6l5.5,4.5c4.1-8.6,9.7-16.5,17.4-22c2.8-1.7,5.3-3.7,7.7-5.9c2.2-2.4,3.8-5.7,3.1-8.9-.8-4.1-5.2-6.8-9.3-6.8-4.2,0-8.1,2.1-11.3,4.7-9.9,8.1-15.6,21.8-13.1,34.4v0Z" fill="#ba68c8" />
    <path d="M506.7,373.6l5.5,4.5c4.1-8.6,9.7-16.5,17.4-22c2.8-1.7,5.3-3.7,7.7-5.9c2.2-2.4,3.8-5.7,3.1-8.9-.8-4.1-5.2-6.8-9.3-6.8-4.2,0-8.1,2.1-11.3,4.7-9.9,8.1-15.6,21.8-13.1,34.4v0Z" fill="#00bfac" />
    <path d="M125,413.6c-.3.2-.6.3-.9.4.3-.1.6-.2.9-.4Z" fill="#455a64" />
    <path d="M386.4,181.9c7.5-2.8,12.4,1.2,12.4,1.2L400,215l-13.4-7.7-.2-25.4v0Z" fill="#ba68c8" />
    <path d="M367,205.2l-14.1-16.1c-8.1,2-12.6,10.4-12.6,10.4l18.8,22.2c13.7,5.4,7.9-16.5,7.9-16.5Z" fill="#ba68c8" />
    <path
        d="M443.1,430.2c-1,1.5-2.7,2.5-4.6,2.7-2.1.2-4.2,0-6.2-.4-3.1-.4-6.2-.5-9.3-.2-1.9.2-3.9.4-5.8.4-2,0-3.9-.6-5.5-1.7-1.1-.9-1.8-2.1-2-3.5-.2,1.8.6,3.6,2,4.7c1.6,1.1,3.5,1.8,5.5,1.7c2,0,3.9-.1,5.8-.4c3.1-.3,6.2-.2,9.3.2c2.1.3,4.3.9,6.4.5c1.9-.2,3.5-1.2,4.5-2.7l-.1-1.3v0Z"
        fill="#263238"
    />
    <path
        d="M441.3,420.5c-.1-.6-.4-1.1-.9-1.4l-9.4-.2c-1,1.3-2.4,2.2-3.9,2.7-1.7,1.8-1.3,4.9-3,4.9-1.2,0-.8-2.2.8-4.3-.5.1-1.1.1-1.6.2-1.7,1.7-1,4.3-2.8,4.3-1.2,0-.8-2.1.7-4.3h-1.3c-.4,0-.8,0-1.2-.1-3.5,2.7-3.8,5.7-3.3,10.4.6.1,1.2.2,1.8.2c1.9,0,3.9-.2,5.8-.4c3.1-.3,6.2-.2,9.3.2c2,.4,4.2.6,6.2.4c1.9-.2,3.5-1.2,4.6-2.7l-1.8-9.9v0Z"
        fill="#455a64"
    />
    <path d="M430.7,416.2v4.5c0,1,.8,1.9,1.9,1.9h4.7c1.6,0,3-1.3,3.1-3l.1-3.4h-9.8v0Z" fill="#ffbea7" />
    <path
        d="M462.1,414.1c-.5,1.1-1.6,1.9-2.9,2s-2.5-.2-3.6-.9c-1.6-1-2.3-2.7-3.4-4.1-1.2-1.4-2.5-2.7-3.9-3.8-1.6-1.2-2.9-2.6-3.8-4.4-.2-.5-.4-1-.4-1.6-.1,1,0,2.1.4,3.1.9,1.7,2.2,3.2,3.8,4.4c1.5,1.1,2.8,2.4,3.9,3.8c1.1,1.5,1.8,3.1,3.4,4.1c1.1.7,2.4,1,3.6.9s2.3-.9,2.9-2c.2-.8.2-1.7.2-2.5-.1.3-.1.7-.2,1v0Z"
        fill="#263238"
    />
    <path
        d="M462.2,410.2c0-1.4-.3-2.7-.9-4l-2.3-2.4-1.6-1.5c-.5,0-1,.1-1.5.3-.9.4-1.8,1-2.4,1.8-.2.3-.5.6-.7.9-.3.3-.7.4-1.1.3-.3-.1-.5-.3-.5-.6s.1-.5.2-.8c.6-1,1.5-1.9,2.6-2.4.7-.3,1.4-.5,2.1-.5l-.3-.2c-.8-.1-1.6,0-2.4.3-.9.4-1.8,1-2.4,1.8-.2.3-.5.6-.7.9-.3.3-.7.4-1.1.3-.3-.1-.5-.3-.5-.6s.1-.5.2-.8c1.1-2,3.4-3.2,5.7-2.9l-.7-.6c-4.3-.5-7.8,1.4-8.3,5.5.8.9,1.7,1.8,2.6,2.5c1.5,1.1,2.8,2.4,3.9,3.8c1.1,1.5,1.8,3.1,3.4,4.1c1.1.7,2.4,1,3.6.9s2.3-.9,2.9-2c.1-.3.2-.7.2-1.1.2-1,.1-2,0-3v0Z"
        fill="#455a64"
    />
    <path d="M453.9,403l.3,4.9c3.1,1.8,6.3.8,7.4-.3l.2-4.5h-7.9Z" fill="#ffbea7" />
    <g>
        <path d="M476.9,291.1c-1.4-4.9-3.1-9.6-5-14.3-6.2-16.5-10.2-20.8-17.5-19.5l5,23.7l6.4,12.2-5.8,9.6l6.4,10.1L476,298c1.3-2,1.6-4.5.9-6.9v0Z" fill="#ffbea7" />
        <path d="M459.9,297.8c-.3-.5-.4-1.1-.5-1.7l-.3-4.2-29.8,1.9c-.4,2.1-.8,4.6-1.2,7.5c10.8,2.9,22.1,1.6,31.8-3.5Z" fill="#ffbea7" />
        <path
            d="M440.7,259.3l-8,1.6c-1.8,3.2-3.6,6.2-5.3,9.5-1.3,2.4-2.7,5-2.6,7.8.1,3,2,5.7,4.7,6.9l-.9,10.9c12.5,3.8,27.8.5,31.1-2.4c1-4.5,1.9-9.4,2.9-14c.7-2.9,1.2-5.9,1.4-9c.1-3-.6-6.1-2.1-8.7v-.1c-2.1-3.2-6-4.9-9.8-4.2l-11.4,1.7v0Z"
            fill="#ba68c8"
        />
        <path
            d="M440.7,259.3l-8,1.6c-1.8,3.2-3.6,6.2-5.3,9.5-1.3,2.4-2.7,5-2.6,7.8.1,3,2,5.7,4.7,6.9l-.9,10.9c12.5,3.8,27.8.5,31.1-2.4c1-4.5,1.9-9.4,2.9-14c.7-2.9,1.2-5.9,1.4-9c.1-3-.6-6.1-2.1-8.7v-.1c-2.1-3.2-6-4.9-9.8-4.2l-11.4,1.7v0Z"
            opacity="0.1"
        />
        <path
            d="M440.7,259.3l-8,1.6c-1.8,3.2-3.6,6.2-5.3,9.5-1.3,2.4-2.7,5-2.6,7.8.1,3,2,5.7,4.7,6.9l-.9,10.9c12.5,3.8,27.8.5,31.1-2.4c1-4.5,1.9-9.4,2.9-14c.7-2.9,1.2-5.9,1.4-9c.1-3-.6-6.1-2.1-8.7v-.1c-2.1-3.2-6-4.9-9.8-4.2l-11.4,1.7v0Z"
            fill="#00ccd1"
        />
        <path
            d="M460.4,298.6c-.2-.2-.3-.5-.5-.8-9.8,5.1-21,6.3-31.6,3.6-2.2,16.7-4.2,45-3,63.6c1,21.7,5,52.4,5,52.4c5.2,1.6,9.1.6,10.6-.5c1.7-21.5,5.5-36.3,2.6-50.5c2-10,3.2-22.5,3.2-22.5l1.5,22l5.1,38.7c2.9,1.5,6.4,1.3,9.1-.5c3.7-22.1,5.1-37.1,1.9-48.1c5-36.2,5.3-45.5-3.9-57.4v0Z"
            fill="#00bfac"
        />
        <path d="M448.9,339.6l2.7-11.5c4.4-.7,8.3-3.2,10.8-7-3.8,3-8.4,4.6-13.2,4.6l-2.5,18.2.5,7.7.2-2.8c.3-3,.8-6.1,1.5-9.2v0Z" opacity="0.2" />
        <path
            d="M431.5,260.7c-4.9.2-12.3,1-19.6.9-4.1-.1-8.3-.5-12.3-1.4c0,0-9.7-11.2-12.6-16.2.7-2.7,1.4-5.3,2-7.9.2-.9.2-1.9-.2-2.7-.5-1.2-1.1-2.4-1.8-3.4-1-1.4-1.6-2.9-3.2-3.4-2.5-.7.3,2.7,1.1,4-1.4.5-2.7,1.1-3.9,1.9-.7.5-1,1.4-.5,2.2c0,.1.1.1.1.2l.4.5c-1.6,2.9-1.6,6.5-.2,9.5l8.5,22.1c1.1,2.7,3.4,4.6,6.3,5.2l13.7,2.4l17.1,3c3.8.6,7.4-1.7,8.3-5.4.5-2.2,1.1-4,1.4-6.1.4-2.5-1.4-4.8-3.9-5.2-.1-.2-.4-.2-.7-.2v0Z"
            fill="#ffbea7"
        />
        <path d="M429.7,240.2l-2.5,4.3l2.7,1-.2-5.3v0Z" fill="#e39b81" />
        <path
            d="M429.4,238.3c.4-3.8,1.5-7.3,3.9-9.1-.6,4.7.3,9.4,2.8,13.4.2-1.2.9-2.4,1.8-3.2c1.2-1.3,3.1-1.3,4.4-.1.4.4.7.8.8,1.3.9,2.3-.2,5-2.5,5.9-1,.4-2.1.4-3.2.1.7,3.4,3.3,6.1,6.7,6.8c2.2.4,4.5.2,6.5-.6l1,5c-4.1,4.4-11.1,1.5-11.1,1.5l-.9-5c-8.1.5-8.9.3-9.7-4.1-.6-3.9-.8-7.9-.5-11.9v0Z"
            fill="#ffbea7"
        />
        <path
            d="M440.6,222.6c-3.8-1.4-8.4.7-10.5,4.2-2,3.6-2.1,8-.4,11.8c0-3.5,1.3-6.8,3.7-9.3-.8,5.7-.1,9.9,2.8,13.4.6.8,1,1.7,1,2.7s-.2,1.9-.2,2.9c.1,2,1.5,3.7,2.8,5.3s2.6,3.3,2.7,5.3c.1,3.4-1,6.9-1.2,10.2-.3,3.4.5,6.8,2.3,9.6c2.9,4,7.8,5.9,12.6,5c4.8-1,8.7-4.3,10.6-8.9c1.8-4.5,1.6-9.6-.5-14-1.7-3.6-4.5-6.7-6.1-10.3-1.8-4.1-2.1-8.6-2.6-13.1-.5-4.4-1.4-9-4.2-12.5-3.4-3.4-8.5-4.4-12.8-2.3v0Z"
            fill="#263238"
        />
    </g>
    <g>
        <path
            d="M237,505.3c3.8,3.8,8.4,6.4,13.6,7.7c1.5.4,3.2.8,3.8,2.2.3,1.4-.3,2.9-1.5,3.7-1.9,1.3-4.2,1.8-6.5,1.5-2.2-.4-4.5-1-6.6-1.8-2.1-.9-4.3-1.5-6.6-1.7-1.1,0-2.2-.1-3.2-.2-1.1-.1-2.1-.7-2.7-1.6c0-6.6,1.7-8.9,1.7-8.9l8-.9v0Z"
            fill="#455a64"
        />
        <path d="M237.2,502.4v4.5c-3,3.3-7.8,1.1-8.3-.7l-.1-3.8h8.4v0Z" fill="#ffa8a7" />
        <path d="M214.8,486.4c5.3-4.8,8.3-4.6,9.6-3.7c1.3,1,3.6,4.1-2.4,9.3-5.9,5.2-5.5,8.4-9.6,8.4s-3.3-4.1-3.3-4.1c.1-1.4.3-2.8.6-4.2l5.1-5.7v0Z" fill="#455a64" />
        <path d="M216.7,489.5v3.1c-2.5,2.1-6.7.9-6.9-.5l.2-3.1l6.7.5Z" fill="#ffa8a7" />
        <path d="M241.1,401.9l2.4,54.8-6.3,45.7c-3.3,2.2-8.5,0-8.5,0-.7-14-3.8-34-1.3-44.6l-4.6-29.5-1.6,23.6c-.3,13.9-3.9,28.7-4.5,37.5-2.2.9-4.7.7-6.8-.5-2.1-18.5-6.2-28.5-2.2-41.6-2.7-24.9-5.1-40.3-1.6-46.6l35,1.2Z" fill="#263238" />
        <path d="M221.9,422.7l.9,5.6-.5,7.5-1.8-11.7c-3.1-.4-5.9-2.2-7.6-4.9c2.6,1.9,5.7,3.1,9,3.5v0Z" opacity="0.2" />
        <path d="M230.5,350.6l-16.1-2.2c-6.8-.6-9.7,6.8-9.6,13.6c0,4,2.2,14.2,3.4,24.8-1.4,3.4-2.4,7-2.9,10.7-1.6,7.9,25,12.3,35.2,7c1.2-.7,2-2,1.9-3.4-.5-14.4-2.2-31.7-2.2-31.7l-9.7-18.8v0Z" fill="#455a64" />
        <path
            d="M238.3,327.5c1.2-2.4,1.8-5,1.6-7.6-.2-2.7-1.7-5.1-4-6.5-2.4-1.3-5.3-.8-7.1,1.3-6.4-3.6-14.5-1.3-18.1,5.1-1.3,2.3-1.9,5-1.6,7.6.2,2.7,1.2,5.4.9,8.2-.2,1.6-.8,3.2-.4,4.7.4,1.3,1.4,2.4,2.6,3s4,.5,5.3.7c4.1,3.7,9.1,2.3,12.4-1c3.1-3.3,8.4-15.5,8.4-15.5v0Z"
            fill="#8c5757"
        />
        <path d="M239.1,331.2l2.5,4.4-2.8,1l.3-5.4Z" fill="#f28f8f" />
        <path
            d="M239.4,329.2c-.4-3.9-1.5-7.5-4-9.3.7,4.8-.4,9.7-2.9,13.8-.3-1.3-.9-2.4-1.9-3.3-.9-.9-2.3-1.2-3.6-.8-.8.4-1.5,1.1-1.8,2-1,2.4.2,5.1,2.6,6.1c1,.4,2.2.5,3.3.1-.7,3.5-3.4,6.2-6.9,7-2.2.5-4.6.2-6.7-.6l-1,5.2c4.2,4.5,11.4,1.5,11.4,1.5l.9-5.1c8.3.5,9.1.3,10-4.2.8-4.2,1-8.3.6-12.4v0Z"
            fill="#ffa8a7"
        />
        <path d="M221,323.6c-1.2-3.4-3.5-6.2-6.6-7.9-3.6,2.8-5.6,7.2-5.3,11.7.2,2.7,1.2,5.4.9,8.2-.2,1.6-.8,3.2-.4,4.7.4,1.3,1.4,2.4,2.6,3s4,.5,5.3.7l.5.4c1.4-2.7,2.5-5.5,3.3-8.4c1.1-4,1-8.4-.3-12.4v0Z" fill="#6e3636" />
        <path
            d="M218.7,320.7c-1.7-5.6-7.6-8.7-13.2-7-3.3,1-5.8,3.5-6.9,6.8-2.5,7.6,3.9,15.6,2.5,23.5-.5,2.8-2,5.4-2.5,8.2-1.2,6.6,3.2,13,9.9,14.2.2,0,.4.1.6.1-1.8-2-1.8-5.1-.8-7.5c1.2-2.4,2.7-4.6,4.4-6.7c6.3-8.7,9.1-21.2,6-31.6v0Z"
            fill="#8c5757"
        />
        <path d="M284.2,337.7l-11.4,32.9-23.5-13l11.2-32.5l23.7,12.6Z" fill="#00bfac" />
        <path d="M265.4,331.2l10.3,5.4.5-1.4-2-1.8-5.6-2.8-2.6-.5-.6,1.1v0Z" fill="#455a64" />
        <path d="M268.5,330.6l.5-1l5.5,3-.3.9-5.7-2.9v0Z" fill="#455a64" />
        <path d="M265.8,327.8l12.4,6.7.5-1.3-12.5-6.6-.4,1.2v0Z" fill="#455a64" />
        <path d="M269.1,328.2c1.1-3.4,7.6-.2,6.3,3.3l-6.3-3.3Z" fill="#455a64" />
        <path
            d="M247.7,364.2l8.7,11.2l15-14.8c.8-.8,1.4-1.9,1.5-3.1.7-5.6,2.3-9.6,4.3-8.9c1.3.4-.4,5.9-.4,5.9l1.9-1.1l2.2-6.4h1c1.1,0,2,.7,2.4,1.7l.9,2.7c1.1,3.3,0,6.9-2.8,9l-3.3,2.4c-.5.4-.9.8-1.3,1.3-5.2,8-11.1,15.5-17.6,22.5-1.5,1.5-3.9,1.8-5.7.6-9.2-6.1-16.8-16.4-16.8-16.4l10-6.6v0Z"
            fill="#ffa8a7"
        />
        <path d="M230.5,350.6l1.5.2c4.9.6,9.3,3.1,12.3,7l11,14.4c-.5,5.2-4.2,9.4-9.3,10.6L233.9,370c-6.4-7-3.4-19.4-3.4-19.4v0Z" fill="#455a64" />
    </g>
    <g id="eahDrPwe3GI120" opacity="0">
        <path
            d="M196.9,232.6v2.5c0,2.6.1,5.2,0,7.9c0,.7-.3,1.4-.5,2.1-1.8,5.5-4.6,10.4-8.6,14.6-2.8,2.9-6,5.1-9.8,6.5-1.7.6-3.5.9-5.3.6-2.8-.5-4.6-2.1-5.8-4.5s-1.7-5.1-1.7-7.8c-.2-8.9,2.5-16.8,8.1-23.7c2.7-3.4,6.1-6.1,10.1-7.9c1.6-.8,3.3-1.3,5.1-1.4c3.1-.2,5.6,1.2,6.9,4c.4.9.7,2,1,3c.1.2.1.4-.2.5-3.1,1.7-6.1,3.5-9.2,5.2c0,0-.1,0-.1,0s-.1,0-.1,0c-1.1-1.5-2.8-1.4-4.4-.6-2.7,1.2-4.7,3.3-6.1,5.9-2,3.9-2.5,8-1.7,12.3.1.5.3,1.1.6,1.6.8,1.7,2.3,2.4,4.2,2c2.5-.6,4.5-1.9,6.2-3.8c1.7-1.8,2.8-4,3.6-6.4c0-.1,0-.1.1-.3-3,1.7-5.9,3.4-8.9,5.1c0-.2,0-.3,0-.5c0-2.4,0-4.7-.1-7.1c0-.3.1-.4.3-.6c5.3-3,10.6-6.1,15.9-9.1c0,0,.2,0,.4-.1v0v0Z"
            fill="#0a1d56"
        />
        <path
            d="M128.8,294.8c.3-1.2.6-2.3.8-3.4c1.1-4.6,2.3-9.3,3.4-13.9c1.9-7.8,3.8-15.6,5.7-23.4.5-2.1,1-4.3,1.6-6.4.1-.2.2-.4.3-.5c3.4-1.9,6.8-3.9,10.2-5.8.1,0,.1-.1.2-.1c4.1,11.1,8.3,22.2,12.4,33.3-3.2,1.9-6.4,3.7-9.6,5.6-.6-1.9-1.2-3.6-1.9-5.5-.1.1-.3.1-.4.2-3.7,2.1-7.4,4.3-11,6.4-.3.1-.4.3-.4.6-.5,2.3-1,4.6-1.5,6.9-.1.2-.2.4-.3.5-3.1,1.8-6.2,3.6-9.3,5.4c0,.1-.1.1-.2.1v0v0Zm13.7-23.2c.2-.1.4-.2.5-.3c2.1-1.2,4.1-2.4,6.2-3.6.3-.2.4-.4.3-.7-1.1-3.3-2.3-6.7-3.4-10-.1-.1-.1-.3-.2-.5-1.2,5.1-2.3,10.1-3.4,15.1v0v0Z"
            fill="#0a1d56"
        />
        <path
            d="M256,181.9v8.1c0,.4-.1.6-.5.8-3.4,1.9-6.8,3.9-10.2,5.8-.3.2-.5.4-.5.8c0,1.8,0,3.6,0,5.4c0,.1,0,.3,0,.6c3.3-1.9,6.4-3.7,9.7-5.6c0,.2,0,.3,0,.4v7.3c0,.3-.1.5-.4.6-3,1.7-6,3.4-9,5.1-.3.2-.4.4-.4.7c0,2,0,4,0,6v.6c3.7-2.1,7.3-4.2,11-6.4c0,.2,0,.3,0,.4v7.7c0,.3-.1.4-.4.6-6.2,3.6-12.5,7.3-18.8,10.9-.1.1-.2.1-.4.2c0-.2,0-.3,0-.5c0-12.7-.1-25.4-.1-38.2c0-.3.1-.5.4-.7c6.3-3.6,12.6-7.1,18.8-10.7.5.2.6.1.8.1v0v0Z"
            fill="#0a1d56"
        />
        <path
            d="M223.5,231.4c3.3-1.9,6.4-3.7,9.6-5.6c0,.2,0,.3,0,.4c0,2.4,0,4.9,0,7.3c0,.4-.1.6-.4.8-5.8,3.4-11.6,6.8-17.4,10.1-.1.1-.3.1-.5.2v-.4c-.1-12.8-.1-25.6-.2-38.4c0-.4.1-.7.5-.9c2.6-1.4,5.1-2.9,7.7-4.4.1-.1.3-.1.5-.2.1,10.4.1,20.7.2,31.1v0v0Z"
            fill="#0a1d56"
        />
        <path d="M201,252.8c0-3,0-5.8,0-8.7-.1-10.1-.1-20.3-.2-30.4c0-.4.1-.6.4-.8c2.6-1.5,5.2-2.9,7.9-4.4.1-.1.3-.1.5-.3c0,.2,0,.3,0,.5.1,12.9.1,25.7.2,38.6c0,.2,0,.4-.3.6-2.7,1.6-5.5,3.2-8.2,4.8c0,0-.1,0-.3.1v0v0Z" fill="#0a1d56" />
    </g>
    <g>
        <path d="M384.4,133.2l-1-4-1.1-4.9c-.2-.6.2-1.3.8-1.4.6-.2,1.3.1,1.5.7c0,0,0,.1,0,.1l.9,2.6v-7.4l3.1,5.6c.5.8.7,1.8.6,2.7l-.5,5.6-4.3.4v0Z" fill="#ffcac9" />
        <g>
            <path d="M385.5,132.5l-3.3,1.9l2,31.2l3.2,18.6l10.9,1.3-4.5-19.9-5-32.9-3.3-.2Z" fill="#ffcac9" />
            <path d="M386.4,181.9c7.5-2.8,12.4,1.2,12.4,1.2L400,215l-13.4-7.7-.2-25.4v0Z" fill="#455a64" />
            <path
                d="M353.4,191.8l-6.1-7.9-6.8-32.1c-.2-.9-.1-1.8.2-2.6l.8-2.1c.4-1.1.6-2.2.6-3.4l-.1-4.5c0-.7-.6-1.3-1.4-1.3-.7,0-1.2.5-1.4,1.1l-.7,3.9-1.7,1.9-1.5-5.4v-6.8l-3.4,4.9c-.9,1.3-1.3,2.9-1,4.5l1.4,8.6l3.5,35.2c.4,3.6,1.7,7,4,9.8l3.8,4.7l9.8-8.5v0Z"
                fill="#ffcac9"
            />
            <path
                d="M394.4,353.6c-1.7-2.9-5.1-5.1-7.8-7.1-1.5-1.3-3.3-2.1-5.2-2.4-2-.2-3.9.8-4.8,2.5c0,0,0,.1-.1.1-.5,1.6-.3,3.3.7,4.7s2.2,2.6,3.6,3.6s2.6,2.2,3.6,3.6c.7,1,1.1,2.2,1.8,3.2c1.5,2,4,3.1,6.5,2.7c1-.1,2-.7,2.6-1.5.5-.7.7-1.5.7-2.3v-.8c0-2.2-.6-4.4-1.6-6.3v0Z"
                fill="#455a64"
            />
            <path d="M387.1,351.1v5c2.5,1.2,5.4,1,7.8-.4l.5-4.5-8.3-.1v0Z" fill="#ffcac9" />
            <path d="M396.7,259.9c1.5,4.5-.3,26-1.2,46.6c3.3,7.8,2.4,29.9.5,45.6c0,0-3.3,2-9.2,0l-7.4-43.3-1-24.5c0,0-1.9,21.7-4,35.7c2,10.7,1.5,12.7-3.5,45.5-3.5,1.8-7.6,1.8-11.1,0-2.8-46.1-1.8-88.2-1.2-103.3l38.1-2.3v0Z" fill="#00bfac" />
            <path d="M379,299.2l-.8-20c5.2,0,10-3.9,13.6-7.5-2.4,4-6,7.1-10.3,9L379,299.2Z" opacity="0.3" />
            <path d="M357.8,263.4c23,9.6,38,.9,40-3.6-1.1-15.9,2.7-34.6,2.4-42.5s-1.2-16.8-13.5-15.1l-13,1.3-6.6,1.6-7.9,16.5-1.4,41.8v0Z" fill="#455a64" />
            <path
                d="M386.6,196c.9.1,1.9-.2,2.5-.9.5-.6.8-1.4.6-2.2.8-.1,1.5-.7,1.8-1.4.2-.8.1-1.7-.4-2.4c1.1-.3,2.1-1.1,2.6-2.1.5-1.1.6-2.3.1-3.4c1.2-.3,2.2-1.3,2.6-2.5.4-1.3.1-2.7-.7-3.7c1.1-1.4,1.3-3.4.6-5-.8-1.6-2.5-2.8-4.3-2.9.3-1.7-.4-3.5-1.7-4.6s-3.1-1.4-4.7-.9c-1-2.3-3.6-3.4-6-2.4-.6.3-1.2.6-1.6,1.1-.8-.9-1.9-1.3-3.1-1.2s-2.2.8-2.8,1.8c-2.4-1.1-5.1,0-6.2,2.3-.3.7-.5,1.4-.4,2.2-1.2.4-2,1.5-2,2.7.1,1.3,1,2.3,2.3,2.6c1.1,6.2,3.2,12.3,6.1,17.9c1.3,2.5,2.9,5.1,5.4,6.4c2.8,1.4,7,.6,9.3-1.4v0Z"
                fill="#37474f"
            />
            <path d="M364.9,181.3l-2.7,4.7l3,1.1-.3-5.8Z" fill="#ffa8a7" />
            <path
                d="M365.8,173.1c-1.8,6.5-2.1,13.3-.8,20c.1,1.1.5,2.2,1.2,3.1.9,1,2.1,1.5,3.4,1.6s2.6-.1,3.8-.4v6.1c4.6,1.1,9.4,1.5,13-1.3v-6.2c-2.6.8-5.4,1-8.1.5-3.2-1.7-3.8-7.6-3.4-9.1.6.8,1.6,1.1,2.5.9s1.6-.8,2.1-1.6c.4-.8.7-1.7.8-2.6.2-1.1.1-2.2-.5-3.2-.9-1.1-2.3-1.6-3.6-1.2s-2.4,1.3-3.1,2.6c-.2.4-.4.8-.5,1.2s-.6.6-.9.4c-.3-.1-.4-.3-.5-.6-.2-1.8.2-3.6,1-5.2-1.1-.1-2-.7-2.6-1.6-.6-.8-.8-1.9-.5-2.9-1-.1-2.2-.2-3.3-.5v0Z"
                fill="#ffcac9"
            />
            <path d="M367,205.2l-14.1-16.1c-8.1,2-12.6,10.4-12.6,10.4l18.8,22.2c13.7,5.4,7.9-16.5,7.9-16.5Z" fill="#455a64" />
        </g>
    </g>
    <g>
        <path
            d="M372.4,379.1c-.9,2-2.8,3.3-5,3.3-2.1,0-4.2-.3-6.3-.8-4.7-.8-9.2,0-13.8-.1-1.5,0-3-.1-4.5-.5s-2.9-1.1-3.9-2.3c-.6-.7-1-1.5-1.1-2.4-.2,1.4.2,2.8,1.1,3.8c1,1.1,2.4,2,3.9,2.3s3,.5,4.5.5c4.7.1,9.2-.7,13.8.1c2,.5,4.2.8,6.3.8c2.2,0,4.1-1.4,5-3.4.2-.7.2-1.4.1-2.1.1.3,0,.5-.1.8v0Z"
            fill="#455a64"
        />
        <path
            d="M372.3,375.2l-.9-4.2c-.1-.8-.4-1.5-.7-2.2-.4-.7-1.1-1.1-1.9-1.1-2.6-.3-6.1-1.3-8.3.2-3.4,2.3-7.4,3.5-11.4,3.3-2.1-.2-4.2-.3-6.3-.2-2.1.2-4.3,1.4-4.9,3.4-.2.6-.2,1.2-.1,1.9.1.9.5,1.7,1.1,2.4c1,1.1,2.4,2,3.9,2.3s3,.5,4.5.5c4.7.1,9.2-.7,13.8.1c2,.5,4.2.8,6.3.8c2.2,0,4.1-1.4,5-3.3.1-.3.1-.5.1-.8.2-1.1.1-2.1-.2-3.1v0Z"
            fill="#455a64"
        />
        <path d="M360,363.5l-.2,5.5c0,1.2.9,2.2,2,2.3c1.9.1,3.7.1,5.6,0c1.5-.1,2.8-1.4,2.9-3l.2-4.1-10.5-.7v0Z" fill="#ffcac9" />
        <path d="M375.8,376.4l2.2,4.7-5.3,5.9.4,14l17.1-14.9c1.6-1.4,2.1-3.6,1.2-5.5l-5.2-10.9-10.4,6.7v0Z" fill="#8c5757" />
        <path d="M381.1,385.3c-1.3-1.1-2.4-2.6-3.1-4.2l-1.3,1.5c1,1.4,2.6,2.4,4.4,2.7v0Z" fill="#6e3636" />
        <path d="M375.4,377.5c6.8-.6,11.5-7.6,11.5-7.6-6.1-12.5-11.4-26.4-22-23l10.5,30.6Z" fill="#00ccd1" />
        <path
            d="M348.8,524.3c-.6,2-2.9,3.2-5,3.4-2.1,0-4.2-.3-6.3-.8-4.7-.8-9.2,0-13.9-.1-1.5,0-3.1-.2-4.5-.5-1.5-.3-2.9-1.2-3.9-2.3-.6-.7-1-1.5-1.1-2.4-.2,1.4.2,2.8,1.1,3.8c1,1.2,2.4,1.9,3.9,2.3c1.5.3,3,.5,4.5.5c4.7.1,9.2-.7,13.9.1c2.1.5,4.2.8,6.4.8s4.1-1.3,5-3.4c.2-.7.3-1.4.2-2.2-.1.3-.2.5-.3.8v0Z"
            fill="#263238"
        />
        <path
            d="M348.7,520.4c-.3-1.4-.6-2.8-.9-4.3-.1-.8-.4-1.5-.7-2.2-.4-.7-1.1-1.1-1.9-1.1-2.6-.3-6.2-1.3-8.3.2-3.4,2.3-7.4,3.5-11.5,3.3-2.1-.2-4.2-.3-6.4-.3-2.1.3-4.3,1.4-4.9,3.5-.2.6-.2,1.2-.1,1.8.1.9.5,1.7,1.1,2.4c1,1.2,2.4,2,3.9,2.3s3.1.5,4.6.5c4.7.1,9.2-.7,13.9.1c2,.5,4.2.8,6.3.8c2.1-.2,4.3-1.3,5-3.4.1-.3.1-.5.2-.8c0-.8-.1-1.8-.3-2.8v0Z"
            fill="#00bfac"
        />
        <path d="M336.3,508.6l-.2,5.5c0,1.2.9,2.2,2,2.3c1.9.1,3.7.1,5.6-.1c1.5-.1,2.8-1.4,2.9-3l.2-4.1-10.5-.6v0Z" fill="#ffa8a7" />
        <path
            d="M372.5,505.7c0,.8-.3,1.6-.8,2.3-.6.8-1.6,1.3-2.6,1.5-2.5.4-5-.6-6.5-2.7-.7-1-1.1-2.2-1.8-3.2-1-1.4-2.2-2.6-3.6-3.6s-2.6-2.2-3.7-3.6c-1-1.4-1.2-3.1-.7-4.7-.1.2-.2.4-.3.6-.6,1.7-.4,3.5.6,5c1,1.4,2.3,2.6,3.8,3.6c1.4,1,2.7,2.2,3.7,3.7.7,1.1,1.1,2.3,1.8,3.3c1.5,2.1,4.1,3.2,6.6,2.8c1-.2,2-.7,2.7-1.5.6-1,.9-2.1.8-3.2v-.3v0v0Z"
            fill="#263238"
        />
        <path
            d="M370.8,498.7c-1.7-3-5.2-5.1-7.8-7.2-1.5-1.3-3.3-2.1-5.2-2.4-2-.2-3.9.7-4.8,2.5c0,0,0,.1-.1.1-.5,1.6-.3,3.3.7,4.7s2.2,2.6,3.7,3.6c1.4,1,2.6,2.2,3.6,3.6.6,1,1.1,2.2,1.8,3.2c1.5,2.1,4,3.1,6.5,2.7c1-.2,2-.7,2.6-1.5.5-.7.7-1.5.8-2.3v-.8c-.2-2.1-.8-4.3-1.8-6.2v0Z"
            fill="#00bfac"
        />
        <path d="M363.5,496.2v5c2.5,1.2,5.4,1,7.8-.4l.5-4.5-8.3-.1v0Z" fill="#ffa8a7" />
        <path d="M373.1,404.8c1.5,4.5,1,28.3.2,48.9c1.4,10,1.4,31.8-.5,47.5-4,1.8-8.5,1.9-12.6.2l-4.5-47.8-1-24.5c0,0-1.9,21.8-4,35.8.8,10.3-.9,29.9-2.4,50.8c0,0-8.1,4.7-16.1-.5-2.8-46.2,1.7-93,2.7-108.2l38.2-2.2v0Z" fill="#455a64" />
        <path d="M355.4,444.2l-.8-20c5.2,0,10-3.9,13.6-7.5-2.4,4-6,7.1-10.3,9l-2.5,18.5v0Z" opacity="0.3" />
        <path d="M334.1,369.1v39.2c23.1,9.7,38,.9,40.1-3.6-1.1-16,2.7-34.6,2.4-42.5s-1.3-16.9-13.6-15.1l-13,1.3-6.6,1.6-9.3,19.1v0Z" fill="#00ccd1" />
        <path
            d="M321.8,367l-4.4,4.6-10.6-14c1.4-3.7,2.3-7.6,2.6-11.6c0-.7-.5-1.3-1.2-1.3v0c-.5,0-.9.3-1.1.7l-2,4.1c-.6-.2-1-.6-1.2-1.2l-.4-1.1c-.3-.7-.4-1.5-.4-2.3v-2.7c0-1.2-1-2.2-2.2-2.2-.4,0-.7.1-1,.3-1.2.7-2.3,1.6-3.2,2.6s-1.3,2.3-1.3,3.7v3.6c0,.9.2,1.9.5,2.8l1.9,5.2c.2.5.4.9.6,1.4L312,382.4c1.8,3.1,5.8,4.1,8.9,2.2.4-.2.7-.5,1-.7l8.7-7.7-8.8-9.2v0Z"
            fill="#8c5757"
        />
        <path d="M314.7,377.2c.4-2.1,1.4-4,2.7-5.6l-1.2-1.6c-.9,1.6-2.2,4.9-1.5,7.2v0Z" fill="#6e3636" />
        <path d="M314.7,377.2c.4-2.1,1.4-4,2.7-5.6l-1.2-1.6c-.9,1.6-2.2,4.9-1.5,7.2v0Z" fill="#6e3636" />
        <path d="M320.7,367l12.4-12.2c2.8-2.7,6.4-4.4,10.2-4.9h.2c5.2,11.5-1.7,17.1-1.7,17.1l-11.5,10.6c-4.3-2.3-7.7-6-9.6-10.6Z" fill="#00ccd1" />
        <path
            d="M343.7,321.5c-.5-.6-.6-1.4-.3-2-.6.2-1.4,0-1.9-.3-.6-.3-.9-1-.9-1.7.1-.7.6-1.2,1.3-1.3-.6-.1-1.1-.5-1.5-1s-.5-1.1-.5-1.7c.2-1.1,1.1-2.1,2.2-2.4s2.3-.4,3.4-.2c-.4-1.3.2-2.7,1.4-3.2c1.1-.4,2.2-.2,3.1.5s1.6,1.5,2.2,2.4c4.7-2.6,10.7-.8,13.2,4c.2.5.5,1,.6,1.5c2.1.7,3.7,2.4,4.3,4.5.5,2.1.4,4.3-.4,6.4-.8,2-1.8,3.9-3,5.7l-1.6,2.6c-.7,1.1-2.4,3.8-3.1,4.9-3.1,1.5-6.8,1.2-9.7-.6-2.8-1.9-5-4.5-6.2-7.7-1.1-3.6-2-7-2.6-10.4Z"
            fill="#263238"
        />
        <path
            d="M358.2,341c-2,0-3.9-.5-5.6-1.6-2.9-1.9-5-4.6-6.3-7.8-1.3-3.3-2.2-6.7-2.8-10.1-.5-.5-.6-1.3-.4-1.9-.6.1-1.2,0-1.8-.4s-1-1.1-.9-1.8c.1-.6.4-1,.9-1.3-.4-.2-.8-.5-1.1-.9-.4-.5-.6-1.2-.5-1.9.2-1.2,1.1-2.2,2.3-2.5c1-.3,2.2-.4,3.2-.2-.3-1.3.4-2.6,1.6-3.2c1.1-.4,2.3-.2,3.3.5.9.7,1.6,1.5,2.2,2.4c2.5-1.3,5.5-1.5,8.2-.5c2.7,1.1,4.7,3.2,5.8,5.9c2.1.7,3.8,2.4,4.4,4.6.5,2.1.4,4.4-.4,6.4s-1.8,4-3,5.7c-.5.9-1.1,1.7-1.6,2.6l-1.6,2.5c-.6.9-1.2,1.9-1.5,2.4-1.4.7-2.9,1.1-4.4,1.1v0Zm-14.5-21.9l-.1.3c-.3.6-.2,1.4.2,1.9.6,3.5,1.5,6.9,2.8,10.1c1.2,3.1,3.4,5.8,6.1,7.6c2.9,1.8,6.4,2,9.5.6.3-.5.9-1.5,1.5-2.4s1.2-1.9,1.6-2.5c.5-.9,1.1-1.7,1.6-2.6c1.2-1.8,2.2-3.7,3-5.7s.9-4.2.4-6.2c-.6-2.1-2.2-3.7-4.2-4.4h-.1v-.1c-1-2.7-3-4.8-5.6-5.8s-5.6-.8-8,.5l-.1.1-.1-.1c-.6-.9-1.3-1.7-2.2-2.4-.9-.6-2-.8-3-.5-1.1.6-1.7,1.8-1.4,3l.1.2h-.2c-1.1-.2-2.2-.1-3.3.2s-1.9,1.2-2.1,2.3c-.1,1.2.7,2.3,1.8,2.6l1.2.2-1.2.1c-.6.1-1.1.6-1.1,1.2s.3,1.2.8,1.5s1.2.4,1.8.3h.3v0Z"
            fill="#272525"
        />
        <path d="M342.2,328.1l-2.1,3.6l2,.8c0-1.5,0-2.9.1-4.4v0Z" fill="#6e3636" />
        <path
            d="M343.7,321.5c-.8,2.2-1.3,4.4-1.5,6.7-.1,1.5-.1,2.9,0,4.3.1,2,.3,4.1.7,6.1.1,1.1.5,2.1,1.2,3c.9.9,2,1.5,3.3,1.5c1.2,0,2.5-.1,3.7-.4v5.9c4.5,1.1,8.2,1.5,11.7-1.2l-.4-7.6c-2.1.3-4.3,0-6.3-1-3.1-1.7-4-4.3-3.6-5.8.6.7,1.5,1,2.4.8s1.6-.8,2-1.6.7-1.6.8-2.5c.2-1,.1-2.2-.5-3.1-.8-1.1-2.2-1.5-3.5-1.2-1.3.4-2.3,1.3-2.9,2.5-.2.4-.4.8-.5,1.2s-.5.5-.9.4c-.2-.1-.4-.3-.5-.6-.2-1.7.1-3.4.9-4.9-.5.2-1.1.4-1.6.4-.6,0-1.2-.3-1.6-.7-.4-.5-.4-1.2-.1-1.7-1,.5-2.1.2-2.8-.5v0Z"
            fill="#8c5757"
        />
    </g>
</svg>
